<svg width="192" height="64" viewBox="0 0 192 64" fill="none" xmlns="http://www.w3.org/2000/svg">
<path d="M31.9647 0C14.3172 0 0 14.333 0 32C0 49.667 14.3172 64 31.9647 64C49.6123 64 63.9295 49.667 63.9295 32C63.9295 14.333 49.6123 0 31.9647 0ZM16.2351 50.8279L27.2518 9.86791H33.3771L22.3605 50.8279H16.2351ZM51.4112 35.7805L48.0661 38.4893L42.7436 32.4465L37.198 38.4893L33.7191 35.9293L38.1198 29.2465L30.8646 26.4037L32.158 21.7749L39.8147 23.7693L40.454 16.1637H44.7952L45.4345 23.7693L52.6898 21.9237L54.1765 26.4037L46.9956 29.2465L51.4112 35.7805Z" fill="#F4F4F4"/>
<path d="M95.4332 26.3736C94.9426 24.6174 93.4113 23.0248 90.5121 23.0248C87.8806 23.0248 85.8884 24.275 85.9033 26.0908C85.8884 27.6387 86.9588 28.5764 89.6796 29.1867L94.2438 30.169C99.2839 31.2704 101.737 33.6071 101.767 37.4173C101.752 42.4927 97.0389 45.9606 90.3486 45.9606C83.7921 45.9606 79.659 43.0583 78.8859 38.1318L85.0261 37.5364C85.5613 39.9476 87.4495 41.1978 90.3337 41.1978C93.3221 41.1978 95.3143 39.8285 95.3143 37.9978C95.3143 36.4797 94.1695 35.4825 91.7164 34.9467L87.1521 33.9941C82.0229 32.9373 79.6144 30.3476 79.6292 26.4481C79.6144 21.5067 84.0002 18.3364 90.4378 18.3364C96.6969 18.3364 100.325 21.2239 101.187 25.7634L95.4332 26.3736Z" fill="#F4F4F4"/>
<path d="M102.54 32.2083C102.54 23.9478 107.535 18.3218 115.192 18.3218C121.763 18.3218 127.413 22.4446 127.413 31.8362V33.7711H108.784C108.844 38.3553 111.535 41.0343 115.608 41.0343C118.329 41.0343 120.41 39.8436 121.258 37.5813L127.145 38.2362C126.03 42.8948 121.748 45.9311 115.519 45.9311C107.461 45.946 102.54 40.6027 102.54 32.2083ZM121.377 29.5292C121.347 25.8827 118.909 23.2334 115.281 23.2334C111.52 23.2334 108.992 26.106 108.814 29.5292H121.377Z" fill="#F4F4F4"/>
<path d="M128.81 18.9915H134.832V23.531H135.144C136.259 20.4799 138.935 18.6343 142.518 18.6343C146.116 18.6343 148.718 20.4947 149.744 23.531H150.026C151.215 20.5543 154.174 18.6343 158.054 18.6343C162.961 18.6343 166.41 21.8045 166.41 27.7729V45.7375H160.091V28.7701C160.091 25.4659 158.069 23.9626 155.527 23.9626C152.479 23.9626 150.695 26.0464 150.695 29.0678V45.7524H144.51V28.5022C144.51 25.7487 142.682 23.9626 140.02 23.9626C137.3 23.9626 135.114 26.1952 135.114 29.4845V45.7524H128.81V18.9915Z" fill="#F4F4F4"/>
<path d="M167.956 38.5784C167.956 32.5505 172.922 31.0026 178.095 30.437C182.808 29.931 184.711 29.8417 184.711 28.0259V27.9217C184.711 25.2873 183.106 23.7989 180.192 23.7989C177.114 23.7989 175.33 25.3617 174.706 27.1924L168.818 26.3589C170.216 21.477 174.527 18.9766 180.147 18.9766C185.247 18.9766 191 21.1049 191 28.1747V46.0798H184.949V42.4035H184.741C183.596 44.651 181.084 46.6156 176.891 46.6156C171.806 46.6156 167.956 43.8324 167.956 38.5784ZM184.726 36.4798V33.3245C183.908 33.9794 180.608 34.411 178.943 34.6342C176.118 35.0361 174.022 36.0482 174.022 38.4742C174.022 40.7961 175.895 41.9868 178.526 41.9868C182.333 41.9868 184.726 39.4566 184.726 36.4798Z" fill="#F4F4F4"/>
</svg>
